<?xml version="1.0" encoding="utf-8"?>
<!-- Generator: Adobe Illustrator 22.0.0, SVG Export Plug-In . SVG Version: 6.00 Build 0)  -->
<svg version="1.1" id="Слой_1" xmlns="http://www.w3.org/2000/svg" xmlns:xlink="http://www.w3.org/1999/xlink" x="0px" y="0px"
	 viewBox="0 0 250 250" style="enable-background:new 0 0 250 250;" xml:space="preserve">
<style type="text/css">
	.st0{fill:#CB4C4A;}
	.st1{fill:#FFFFFF;}
</style>
<g>
	<path class="st0" d="M37.7,212.5c3.6,3.7,27.3-8.7,32.2-4.1s2.8,27.2,7.3,29.5s19.2-15.1,26.8-14.4c7.6,0.7,16.8,24.2,21.1,24.2
		s13.4-23.5,21.1-24.2c7.6-0.7,22.4,16.7,26.8,14.4c4.5-2.4,2.4-24.9,7.3-29.5c4.9-4.6,28.7,7.8,32.2,4.1l0,0
		c3.7-3.6-8.7-27.3-4.1-32.2c4.6-4.9,27.2-2.8,29.5-7.3c2.4-4.5-15.1-19.2-14.4-26.8c0.7-7.6,24.2-16.8,24.2-21.1
		c0-4.2-23.5-13.4-24.2-21.1c-0.7-7.6,16.7-22.4,14.4-26.8c-2.4-4.5-24.9-2.4-29.5-7.3s7.8-28.7,4.1-32.2l-0.2-0.2
		c-3.6-3.7-27.3,8.7-32.2,4.1c-4.9-4.6-2.8-27.2-7.3-29.5c-4.5-2.4-19.2,15.1-26.8,14.4S129.1,2.3,124.9,2.3s-13.4,23.5-21.1,24.2
		S81.5,9.8,77,12.1c-4.5,2.4-2.4,24.9-7.3,29.5s-28.7-7.8-32.2-4.1l0,0c-3.7,3.6,8.7,27.3,4.1,32.2S14.5,72.5,12.1,77
		c-2.4,4.5,15.1,19.2,14.4,26.8S2.3,120.7,2.3,124.9c0,4.2,23.5,13.4,24.2,21.1c0.7,7.6-16.7,22.4-14.4,26.8
		c2.4,4.5,24.9,2.4,29.5,7.3c4.6,4.9-7.8,28.7-4.1,32.2L37.7,212.5z"/>
	<circle class="st1" cx="125.5" cy="124.1" r="90.1"/>
	<circle class="st0" cx="125.5" cy="124.1" r="77.8"/>
	<path class="st1" d="M54.3,119.4c0,0,8-47.9,38.1-47.9c22.1,0,29.1,17.7,29.1,27.2c0,11.1-8.4,26.8-25.2,26.8
		c-12.3,0-21.7-8.9-21.7-19.9c0-10.2,8.7-17,17.2-17c9,0,12.7,4.8,12.7,11.2c0,5.3-3.5,9-8,9c-3.1,0-5.4-2.5-5.4-5.1
		s3.6-3.2,3.6-6.1c-0.2-1.3-1.2-2.3-3.6-2.3c-4.2,0-10.3,4.1-10.3,10.8c0,6.7,5.8,13.2,15.5,13.2s19.1-9.6,19.1-20.2
		c0-11.2-8.1-21.3-23.1-21.3S60.2,95.4,67.1,116C67.1,116,59.8,115.2,54.3,119.4z"/>
	<path class="st1" d="M87.9,67.4c0,0,8.7-9.8,27.1-13.1c0,0-7.6,6-6.4,13.5C108.7,67.8,99.5,64,87.9,67.4z"/>
	<path class="st1" d="M146.6,57.5c0,0,1.8,5.2,1.8,10.3c0,0,11.8-0.8,18.8,3.1C167.1,70.9,160.6,60.3,146.6,57.5z"/>
	<path class="st1" d="M119,195.3c0,0-24.4-11.1-24.4-32.9c0-19.9,17.5-28.7,28.2-28.7c12.3,0,23.5,8.1,23.5,20.4
		c0,10.8-7,13.9-13.7,13.9s-11.8-2.4-10.2-6.2c1.7-2.9,9.8,1.9,9.8-4c0-4.4-3-7.1-8.9-7.1c-5.7,0-11.5,6.4-11.5,13.9
		s6.2,17.4,18.7,17.4c14.4,0,22.8-11.5,22.8-26.5c0-16.1-9.5-28.8-28.5-28.8c-19.5,0-37,13.5-37,37.2
		C87.9,184.8,103.9,195.3,119,195.3z"/>
	<path class="st1" d="M154.3,95.3c-2.2,0-4.4,1-4.4,4.5c0,2,2.2,6.1,9.6,6.1c7.9,0,10.9-6,10.9-12.2c0-6.7-5-15.5-16.8-15.5
		c-14.3,0-21.3,12-21.3,22.7c0,11.2,7,25.7,27.4,25.7s27.8-18.5,27.8-28c0-9.1-6.9-14.3-6.9-14.3s2.2,4,2.2,14.2
		c0,6.9-5.9,21.7-23.2,21.7s-20.3-14.1-20.3-20.1c0-7.4,3.6-13.4,13.1-13.4c5.1,0,9,4.5,7.7,10.1C160.3,96.8,159.3,95.3,154.3,95.3z
		"/>
	<path class="st1" d="M63.5,157.6c0,0,4.1,11.9,14,17.2c0,0-3.6-8.6-3.6-14.1C74,160.7,68.5,159.5,63.5,157.6z"/>
	<path class="st1" d="M153.1,188.8c0,0,8.3-8.9,12.2-16.8c0,0,3.3,1.5,8.9,2.4C174.3,174.3,166.6,182.3,153.1,188.8z"/>
	<path class="st1" d="M133.4,54.3c0,0,9.7,4,9.7,13.1c0,8.7-7.1,14.4-15.1,14.4c-7.4,0-12.6-5.2-12.6-12.1c0-6.9,4.5-9.7,9.8-9.7
		c5.3,0,7.6,3.5,7.6,6.3c0,2.8-1.7,5.2-5.1,5.2c-3.4,0-4.1-1.8-4.1-1.8s2.2-0.5,2.2-2.9c0-1.5-0.9-2.6-3.3-2.6
		c-1.8,0-3.8,1.7-3.8,5.5c0,4.4,2.6,8.3,9.3,8.3c7.2,0,11.2-6.2,11.2-10.2C139.2,63.7,137.7,58.3,133.4,54.3z"/>
	<path class="st1" d="M56.4,130.3c0,0,4.9-10.7,14.2-10.7c10.8,0,17.1,9.3,17.1,17.3c0,8.7-5.8,16.3-14.6,16.3
		c-7.4,0-12.4-5.7-12.4-11.1c0-5.4,3.3-8.8,9.9-8.8c5.6,0,4.8,6.9,2,6.9c-2.8,0-4.5-1.4-4.5-1.4s-3.3,8.2,4.9,8.2
		s10.4-6.6,10.4-10.3c0-4.6-3-12.8-12.7-12.8C62.2,124.1,56.4,130.3,56.4,130.3z"/>
	<path class="st1" d="M181,167.7c0,0-20.7-2.2-20.7-19.4c0-12.9,9.8-18.3,17.4-18.3c7.6,0,13.6,5.5,13.6,13.9
		c0,7.1-5,10.4-10.4,10.4c-4.8,0-7-3-7-6.1c0-2.3,1.6-4.5,3.7-4.5c2.1,0,4.2,0.2,3.5,3.9c0,0,3.8-2.1,3.8-6.1s-2.8-7.2-7.3-7.2
		c-6.1,0-13.9,3.6-13.9,14.2c0,10.6,11,15.6,16.6,16C181.1,164.6,181.8,167.8,181,167.7z"/>
	<path class="st1" d="M194.3,130.3c0,0,0.7-6.8,0-12.7c0,0-2.5,4.5-6.4,7.3C187.9,124.9,191.7,127.3,194.3,130.3z"/>
</g>
</svg>
